<svg xmlns="http://www.w3.org/2000/svg" width="1200" height="630" viewBox="0 0 1200 630">
  <defs>
    <pattern id="grid" width="100" height="100" patternUnits="userSpaceOnUse">
      <path d="M100 0H0V100" fill="none" stroke="#0A0A0A" stroke-opacity=".12"/>
    </pattern>
  </defs>
  <rect width="1200" height="630" fill="#F0EFE7"/>
  <rect width="1200" height="630" fill="url(#grid)"/>
  <rect width="1200" height="34" fill="#0A0A0A"/>
  <text x="38" y="23" font-family="Courier New,monospace" font-size="10" font-weight="700" letter-spacing="2" fill="#FFFDF5">CHZQ® DIGITAL PRODUCT STUDIO</text>
  <text x="1162" y="23" text-anchor="end" font-family="Courier New,monospace" font-size="10" font-weight="700" letter-spacing="2" fill="#FF4D00">TOSHKENT / UZ</text>
  <path d="M870-120h72L614 750h-72z" fill="#FF4D00"/>
  <rect x="52" y="72" width="74" height="74" fill="#0A0A0A"/>
  <path d="M16 13h30l6 6v21l-6 6h-9l10 10H35L25 46h-9l-6-6V19l6-6Zm4 9-2 2v11l2 2h16l-7-7 8-8H20Zm23 5-4 4 5 5V25l-1 2Z" fill="#FF4D00" transform="translate(57 77)"/>
  <text x="148" y="129" font-family="Arial,Helvetica,sans-serif" font-size="55" font-weight="900" letter-spacing="-4.8" fill="#0A0A0A">CHZQ</text>
  <text x="306" y="94" font-family="Courier New,monospace" font-size="9" font-weight="700" fill="#FF4D00">®</text>
  <text x="52" y="278" font-family="Arial,Helvetica,sans-serif" font-size="108" font-weight="900" letter-spacing="-9" fill="#0A0A0A">RAQAMLI</text>
  <text x="52" y="377" font-family="Arial,Helvetica,sans-serif" font-size="108" font-weight="900" letter-spacing="-9" fill="none" stroke="#0A0A0A" stroke-width="2">MAHSULOT</text>
  <text x="52" y="478" font-family="Arial,Helvetica,sans-serif" font-size="108" font-weight="900" letter-spacing="-9" fill="#FF4D00">QURAMIZ.</text>
  <rect x="52" y="529" width="1096" height="1" fill="#0A0A0A"/>
  <text x="52" y="568" font-family="Courier New,monospace" font-size="14" font-weight="700" letter-spacing="2" fill="#0A0A0A">SAYT / TELEGRAM BOT / MINI APP / AVTOMATLASHTIRISH</text>
  <text x="1148" y="568" text-anchor="end" font-family="Courier New,monospace" font-size="14" font-weight="700" letter-spacing="1" fill="#0A0A0A">1,49 MLN SO‘MDAN ↗</text>
  <circle cx="1030" cy="210" r="106" fill="#0A0A0A"/>
  <path d="M16 13h30l6 6v21l-6 6h-9l10 10H35L25 46h-9l-6-6V19l6-6Zm4 9-2 2v11l2 2h16l-7-7 8-8H20Zm23 5-4 4 5 5V25l-1 2Z" fill="#FF4D00" transform="translate(966 146) scale(2)"/>
  <circle cx="1030" cy="210" r="132" fill="none" stroke="#0A0A0A" stroke-dasharray="5 7"/>
</svg>