<svg xmlns="http://www.w3.org/2000/svg" width="1200" height="630" viewBox="0 0 1200 630">
  <defs>
    <radialGradient id="halo" cx="0" cy="0" r="1" gradientTransform="translate(600 100) rotate(90) scale(440 700)" gradientUnits="userSpaceOnUse">
      <stop stop-color="#D8D8D4" stop-opacity=".72"/>
      <stop offset="1" stop-color="#F7F7F5" stop-opacity="0"/>
    </radialGradient>
    <linearGradient id="panel" x1="0" y1="0" x2="1" y2="1">
      <stop stop-color="#FFFFFF"/>
      <stop offset="1" stop-color="#EEEEEB"/>
    </linearGradient>
    <pattern id="grid" width="52" height="52" patternUnits="userSpaceOnUse">
      <path d="M52 0H0V52" fill="none" stroke="#111111" stroke-opacity=".035"/>
    </pattern>
  </defs>
  <rect width="1200" height="630" fill="#F7F7F5"/>
  <rect width="1200" height="630" fill="url(#halo)"/>
  <rect width="1200" height="630" fill="url(#grid)"/>

  <path d="M16 13h30l6 6v21l-6 6h-9l10 10H35L25 46h-9l-6-6V19l6-6Zm4 9-2 2v11l2 2h16l-7-7 8-8H20Zm23 5-4 4 5 5V25l-1 2Z" fill="#111111" transform="translate(42 32) scale(.92)"/>
  <text x="116" y="79" font-family="Arial,Helvetica,sans-serif" font-size="30" font-weight="800" letter-spacing="-2" fill="#111111">CHZQ</text>
  <text x="1146" y="76" text-anchor="end" font-family="Courier New,monospace" font-size="10" letter-spacing="2.2" fill="#777777">TOSHKENT · UZBEKISTAN</text>

  <rect x="484" y="106" width="232" height="40" rx="20" fill="#FFFFFF" stroke="#D2D2CF"/>
  <circle cx="514" cy="126" r="4" fill="#111111"/>
  <text x="536" y="130" font-family="Arial,Helvetica,sans-serif" font-size="12" font-weight="700" letter-spacing=".6" fill="#444444">CHZQ DIGITAL STUDIO</text>

  <text x="600" y="245" text-anchor="middle" font-family="Arial,Helvetica,sans-serif" font-size="70" font-weight="650" letter-spacing="-5.5" fill="#111111">Yuqori darajadagi</text>
  <text x="600" y="326" text-anchor="middle" font-family="Arial,Helvetica,sans-serif" font-size="76" font-weight="650" letter-spacing="-6" fill="#111111">raqamli mahsulotlar</text>
  <text x="600" y="407" text-anchor="middle" font-family="Arial,Helvetica,sans-serif" font-size="70" font-weight="650" letter-spacing="-5.5" fill="#777777">har bir biznes uchun.</text>

  <rect x="92" y="492" width="492" height="90" rx="22" fill="url(#panel)" stroke="#D0D0CD"/>
  <circle cx="134" cy="537" r="15" fill="#111111"/>
  <path d="m128 537 4 4 8-9" fill="none" stroke="#FFFFFF" stroke-width="2.5" stroke-linecap="round" stroke-linejoin="round"/>
  <text x="166" y="530" font-family="Courier New,monospace" font-size="10" font-weight="700" letter-spacing="1.6" fill="#888888">SYSTEM 01</text>
  <text x="166" y="552" font-family="Arial,Helvetica,sans-serif" font-size="17" font-weight="700" fill="#111111">Sayt · Telegram bot · Mini App</text>

  <rect x="616" y="492" width="492" height="90" rx="22" fill="url(#panel)" stroke="#D0D0CD"/>
  <circle cx="658" cy="537" r="15" fill="#FFFFFF" stroke="#A0A0A0"/>
  <circle cx="658" cy="537" r="4" fill="#111111"/>
  <text x="690" y="530" font-family="Courier New,monospace" font-size="10" font-weight="700" letter-spacing="1.6" fill="#888888">PROOF 08+</text>
  <text x="690" y="552" font-family="Arial,Helvetica,sans-serif" font-size="17" font-weight="700" fill="#111111">Real ishlayotgan loyihalar</text>
</svg>