<svg xmlns="http://www.w3.org/2000/svg" width="1200" height="630" viewBox="0 0 1200 630">
  <defs>
    <linearGradient id="g" x1="0" y1="0" x2="1" y2="1">
      <stop offset="0" stop-color="#766AFF"/>
      <stop offset="1" stop-color="#4D40EA"/>
    </linearGradient>
    <pattern id="grid" width="44" height="44" patternUnits="userSpaceOnUse">
      <path d="M44 0H0V44" fill="none" stroke="#FFFFFF" stroke-opacity=".11"/>
    </pattern>
  </defs>
  <rect width="1200" height="630" fill="#F4F1EA"/>
  <rect x="760" width="440" height="630" fill="url(#g)"/>
  <rect x="760" width="440" height="630" fill="url(#grid)"/>
  <circle cx="1090" cy="90" r="190" fill="#D8FF62"/>
  <rect x="70" y="62" width="68" height="68" rx="18" fill="#111318"/>
  <path d="M118 84c-3-3.5-7-5-11.5-5-10 0-17.5 7-17.5 17.5S96.3 114 106.5 114c4.8 0 8.8-1.8 12-5.5l-6-5.8c-1.5 1.7-3.3 2.6-5.5 2.6-4.8 0-8.2-3.3-8.2-8.6 0-5 3.5-8.5 8.2-8.5 2 0 3.8.8 5.4 2.5l5.6-6.7Z" fill="#D8FF62"/>
  <text x="156" y="108" font-family="Arial,Helvetica,sans-serif" font-size="34" font-weight="800" letter-spacing="-1.8" fill="#111318">CHZQ.uz</text>
  <text x="70" y="238" font-family="Arial,Helvetica,sans-serif" font-size="70" font-weight="800" letter-spacing="-4.3" fill="#111318">Shunchaki sayt emas.</text>
  <text x="70" y="325" font-family="Arial,Helvetica,sans-serif" font-size="74" font-weight="800" letter-spacing="-4.6" fill="#6558FF">Sotadigan tizim.</text>
  <text x="72" y="392" font-family="Arial,Helvetica,sans-serif" font-size="25" fill="#686B72">Sayt · Telegram bot · Mini App · Avtomatlashtirish</text>
  <rect x="70" y="466" width="254" height="66" rx="15" fill="#111318"/>
  <text x="96" y="507" font-family="Arial,Helvetica,sans-serif" font-size="20" font-weight="700" fill="#FFFFFF">1,49 mln so‘mdan</text>
  <rect x="820" y="168" width="304" height="370" rx="28" fill="#171A21" transform="rotate(-3 972 353)"/>
  <text x="858" y="226" font-family="Arial,Helvetica,sans-serif" font-size="15" font-weight="700" fill="#A8ACB7">CHZQ / LIVE</text>
  <text x="856" y="304" font-family="Arial,Helvetica,sans-serif" font-size="18" fill="#A8ACB7">Bugungi yangi leadlar</text>
  <text x="852" y="394" font-family="Arial,Helvetica,sans-serif" font-size="94" font-weight="800" letter-spacing="-8" fill="#FFFFFF">24</text>
  <rect x="856" y="438" width="208" height="56" rx="14" fill="#FFFFFF" fill-opacity=".08"/>
  <circle cx="887" cy="466" r="17" fill="#D8FF62"/>
  <text x="915" y="462" font-family="Arial,Helvetica,sans-serif" font-size="12" font-weight="700" fill="#FFFFFF">Yangi ariza</text>
  <text x="915" y="479" font-family="Arial,Helvetica,sans-serif" font-size="10" fill="#A8ACB7">Mini App bo‘yicha</text>
</svg>